<svg width="25" height="25" viewBox="0 0 25 25" fill="none" xmlns="http://www.w3.org/2000/svg">
<g clip-path="url(#clip0_70_29)">
<path d="M21.2516 3.63445C20.1054 2.4777 18.7405 1.56061 17.2364 0.936647C15.7323 0.31268 14.119 -0.00569418 12.4906 7.70789e-05C5.66719 7.70789e-05 0.10625 5.55945 0.1 12.3845C0.1 14.5704 0.671875 16.697 1.75156 18.5798L0 25.0001L6.56875 23.2782C8.38595 24.2671 10.4218 24.7855 12.4906 24.786H12.4969C19.3219 24.786 24.8813 19.2266 24.8875 12.3954C24.8891 10.7673 24.5685 9.15506 23.9442 7.65145C23.3199 6.14784 22.4042 4.78263 21.25 3.63445H21.2516ZM12.4906 22.6891C10.6453 22.6898 8.83391 22.1932 7.24688 21.2516L6.87188 21.0266L2.975 22.0485L4.01562 18.247L3.77188 17.8548C2.74032 16.2146 2.19476 14.3157 2.19844 12.3782C2.19844 6.71258 6.81875 2.0907 12.4969 2.0907C13.8496 2.08828 15.1894 2.35363 16.4391 2.87147C17.6888 3.38931 18.8236 4.14939 19.7781 5.10789C20.736 6.06265 21.4953 7.19762 22.0124 8.44731C22.5294 9.69701 22.7939 11.0367 22.7906 12.3891C22.7844 18.0751 18.1641 22.6891 12.4906 22.6891ZM18.1391 14.9798C17.8313 14.8251 16.3109 14.0766 16.025 13.9704C15.7406 13.8688 15.5328 13.8157 15.3297 14.1251C15.1219 14.4329 14.5281 15.1345 14.35 15.336C14.1719 15.5438 13.9875 15.5673 13.6781 15.4141C13.3703 15.2579 12.3719 14.9329 11.1906 13.8751C10.2688 13.0548 9.65156 12.0391 9.46719 11.7313C9.28906 11.422 9.45 11.2563 9.60469 11.1016C9.74063 10.9641 9.9125 10.7391 10.0672 10.561C10.2234 10.3829 10.275 10.2516 10.3766 10.0454C10.4781 9.83601 10.4297 9.65789 10.3531 9.5032C10.275 9.34851 9.65781 7.82195 9.39688 7.20633C9.14688 6.59851 8.89219 6.68289 8.70156 6.67508C8.52344 6.66414 8.31563 6.66414 8.10781 6.66414C7.95088 6.66804 7.79645 6.70434 7.65421 6.77075C7.51197 6.83716 7.38499 6.93226 7.28125 7.05008C6.99688 7.35945 6.20156 8.10789 6.20156 9.63445C6.20156 11.161 7.31094 12.6282 7.46719 12.836C7.62031 13.0438 9.64531 16.1673 12.7531 17.511C13.4875 17.8313 14.0656 18.0204 14.5172 18.1641C15.2594 18.4016 15.9297 18.3657 16.4641 18.2891C17.0578 18.1985 18.2938 17.5391 18.5547 16.8157C18.8109 16.0907 18.8109 15.472 18.7328 15.3423C18.6563 15.211 18.4484 15.1345 18.1391 14.9798Z" fill="#525259"/>
</g>
<defs>
<clipPath id="clip0_70_29">
<rect width="25" height="25" fill="white"/>
</clipPath>
</defs>
</svg>
