<svg width="38" height="38" viewBox="0 0 38 38" fill="none" xmlns="http://www.w3.org/2000/svg">
<path d="M0 9.5C0 8.24022 0.500445 7.03204 1.39124 6.14124C2.28204 5.25044 3.49022 4.75 4.75 4.75H33.25C34.5098 4.75 35.718 5.25044 36.6088 6.14124C37.4996 7.03204 38 8.24022 38 9.5V28.5C38 29.7598 37.4996 30.968 36.6088 31.8588C35.718 32.7496 34.5098 33.25 33.25 33.25H4.75C3.49022 33.25 2.28204 32.7496 1.39124 31.8588C0.500445 30.968 0 29.7598 0 28.5V9.5ZM4.75 7.125C4.12011 7.125 3.51602 7.37522 3.07062 7.82062C2.62522 8.26602 2.375 8.87011 2.375 9.5V10.0154L19 19.9904L35.625 10.0154V9.5C35.625 8.87011 35.3748 8.26602 34.9294 7.82062C34.484 7.37522 33.8799 7.125 33.25 7.125H4.75ZM35.625 12.7846L24.4435 19.494L35.625 26.3744V12.7846ZM35.5443 29.1151L22.1493 20.8715L19 22.7596L15.8507 20.8715L2.45575 29.1128C2.59071 29.6181 2.88875 30.0648 3.3036 30.3835C3.71845 30.7021 4.2269 30.8749 4.75 30.875H33.25C33.7728 30.8751 34.281 30.7026 34.6958 30.3844C35.1106 30.0662 35.4088 29.6201 35.5443 29.1151ZM2.375 26.3744L13.5565 19.494L2.375 12.7846V26.3744Z" fill="#F5F0E7"/>
</svg>
