<svg width="33" height="33" viewBox="0 0 33 33" fill="none" xmlns="http://www.w3.org/2000/svg">
<path d="M16.5 0C12.0223 0 11.4593 0.020625 9.69994 0.099C7.94063 0.1815 6.74231 0.457875 5.6925 0.86625C4.59132 1.28044 3.59389 1.93014 2.76994 2.76994C1.93066 3.59431 1.28103 4.59162 0.86625 5.6925C0.457875 6.74025 0.179438 7.94062 0.099 9.69375C0.020625 11.4572 0 12.0182 0 16.5021C0 20.9818 0.020625 21.5428 0.099 23.3021C0.1815 25.0594 0.457875 26.2577 0.86625 27.3075C1.28906 28.3924 1.85213 29.3122 2.76994 30.2301C3.68569 31.1479 4.60556 31.713 5.69044 32.1338C6.74231 32.5421 7.93856 32.8206 9.69581 32.901C11.4572 32.9794 12.0182 33 16.5 33C20.9818 33 21.5408 32.9794 23.3021 32.901C25.0573 32.8185 26.2598 32.5421 27.3096 32.1338C28.41 31.7194 29.4067 31.0697 30.2301 30.2301C31.1479 29.3122 31.7109 28.3924 32.1338 27.3075C32.5401 26.2577 32.8185 25.0594 32.901 23.3021C32.9794 21.5428 33 20.9818 33 16.5C33 12.0182 32.9794 11.4572 32.901 9.69581C32.8185 7.94063 32.5401 6.74025 32.1338 5.6925C31.719 4.59159 31.0694 3.59427 30.2301 2.76994C29.4064 1.92983 28.4089 1.28008 27.3075 0.86625C26.2556 0.457875 25.0553 0.179438 23.3001 0.099C21.5387 0.020625 20.9797 0 16.4959 0H16.5021H16.5ZM15.0212 2.97413H16.5021C20.9076 2.97413 21.4294 2.98856 23.1681 3.069C24.7768 3.14119 25.6513 3.41138 26.2329 3.63619C27.0022 3.93525 27.5529 4.29413 28.1304 4.87162C28.7079 5.44912 29.0648 5.99775 29.3638 6.76912C29.5907 7.34869 29.8588 8.22319 29.931 9.83194C30.0114 11.5706 30.0279 12.0924 30.0279 16.4959C30.0279 20.8993 30.0114 21.4232 29.931 23.1619C29.8588 24.7706 29.5886 25.6431 29.3638 26.2247C29.0993 26.9411 28.6771 27.5889 28.1284 28.1201C27.5509 28.6976 27.0023 29.0544 26.2309 29.3535C25.6534 29.5804 24.7789 29.8485 23.1681 29.9228C21.4294 30.0011 20.9076 30.0197 16.5021 30.0197C12.0966 30.0197 11.5727 30.0011 9.834 29.9228C8.22525 29.8485 7.35281 29.5804 6.77119 29.3535C6.05447 29.0893 5.40607 28.6679 4.87369 28.1201C4.32455 27.5881 3.90168 26.9397 3.63619 26.2226C3.41138 25.6431 3.14119 24.7686 3.069 23.1598C2.99063 21.4211 2.97413 20.8993 2.97413 16.4917C2.97413 12.0862 2.99063 11.5665 3.069 9.82781C3.14325 8.21906 3.41138 7.34456 3.63825 6.76294C3.93731 5.99363 4.29619 5.44294 4.87369 4.86544C5.45119 4.28794 5.99981 3.93113 6.77119 3.63206C7.35281 3.40519 8.22525 3.13706 9.834 3.06281C11.3561 2.99269 11.946 2.97206 15.0212 2.97V2.97413ZM25.3089 5.71312C25.0489 5.71312 24.7914 5.76434 24.5512 5.86384C24.311 5.96335 24.0927 6.10919 23.9089 6.29305C23.725 6.47691 23.5792 6.69519 23.4797 6.93541C23.3801 7.17564 23.3289 7.43311 23.3289 7.69313C23.3289 7.95314 23.3801 8.21061 23.4797 8.45084C23.5792 8.69106 23.725 8.90934 23.9089 9.0932C24.0927 9.27706 24.311 9.4229 24.5512 9.52241C24.7914 9.62191 25.0489 9.67313 25.3089 9.67313C25.8341 9.67313 26.3377 9.46452 26.709 9.0932C27.0803 8.72187 27.2889 8.21825 27.2889 7.69313C27.2889 7.168 27.0803 6.66438 26.709 6.29305C26.3377 5.92173 25.8341 5.71312 25.3089 5.71312ZM16.5021 8.02725C15.3781 8.00972 14.262 8.21594 13.2185 8.63392C12.1751 9.05189 11.2252 9.67327 10.4242 10.4619C9.62318 11.2505 8.98706 12.1905 8.55286 13.2273C8.11866 14.2642 7.89504 15.377 7.89504 16.501C7.89504 17.6251 8.11866 18.7379 8.55286 19.7747C8.98706 20.8115 9.62318 21.7516 10.4242 22.5402C11.2252 23.3288 12.1751 23.9502 13.2185 24.3681C14.262 24.7861 15.3781 24.9923 16.5021 24.9748C18.7266 24.9401 20.8482 24.0321 22.409 22.4467C23.9698 20.8613 24.8447 18.7258 24.8447 16.501C24.8447 14.2763 23.9698 12.1407 22.409 10.5554C20.8482 8.96999 18.7266 8.06196 16.5021 8.02725ZM16.5021 10.9993C17.9609 10.9993 19.3601 11.5788 20.3916 12.6104C21.4232 13.642 22.0028 15.0411 22.0028 16.5C22.0028 17.9589 21.4232 19.358 20.3916 20.3896C19.3601 21.4212 17.9609 22.0007 16.5021 22.0007C15.0432 22.0007 13.6441 21.4212 12.6125 20.3896C11.5809 19.358 11.0014 17.9589 11.0014 16.5C11.0014 15.0411 11.5809 13.642 12.6125 12.6104C13.6441 11.5788 15.0432 10.9993 16.5021 10.9993Z" fill="#F5F0E7"/>
</svg>
