<svg xmlns="http://www.w3.org/2000/svg" viewBox="0 0 239.5 64.15"><defs><style>.cls-1{fill:#2d2d2d;}.cls-2{fill:#383838;}.cls-3{fill:#1e1e1e;}.cls-4{fill:#f9af1f;}.cls-5{fill:#e5951e;}</style></defs><title>Recurso 11</title><g id="Capa_2" data-name="Capa 2"><g id="Capa_1-2" data-name="Capa 1"><polygon class="cls-1" points="27.22 52.79 52.16 38.3 52.14 46.71 27.2 61.21 27.22 52.79"/><polygon class="cls-2" points="0.02 37.09 24.97 22.59 52.16 38.3 27.22 52.79 0.02 37.09"/><polygon class="cls-3" points="27.22 52.79 27.2 61.21 0 45.5 0.02 37.09 27.22 52.79"/><polygon class="cls-4" points="27.22 41.51 52.16 27.01 52.14 35.43 27.2 49.92 27.22 41.51"/><polygon class="cls-4" points="0.02 25.81 24.97 11.31 52.16 27.01 27.22 41.51 0.02 25.81"/><polygon class="cls-5" points="27.22 41.51 27.2 49.92 0 34.22 0.02 25.81 27.22 41.51"/><polygon class="cls-1" points="27.22 30.21 52.16 15.71 52.14 24.13 27.2 38.62 27.22 30.21"/><polygon class="cls-2" points="0.02 14.51 24.97 0.01 52.16 15.71 27.22 30.21 0.02 14.51"/><polygon class="cls-3" points="27.22 30.21 27.2 38.62 0 22.92 0.02 14.51 27.22 30.21"/><path class="cls-3" d="M163,1.61h7.67a44.67,44.67,0,0,1,8.91.57A9.93,9.93,0,0,1,185,5.52a9.66,9.66,0,0,1,2.09,6.35,9.74,9.74,0,0,1-2,6.36,10.05,10.05,0,0,1-5.63,3.36,49.78,49.78,0,0,1-9.8.63h-2.75V41.65H163Zm3.85,3.77V18.45l6.52.08a17,17,0,0,0,5.79-.72A6,6,0,0,0,182,15.48a6.59,6.59,0,0,0,0-7.14,5.78,5.78,0,0,0-2.76-2.28,16.49,16.49,0,0,0-5.62-.68Z"/><path class="cls-3" d="M168.43,43.25h-7.06V0h9.28a44.93,44.93,0,0,1,9.3.62,11.54,11.54,0,0,1,6.24,3.88,11.18,11.18,0,0,1,2.47,7.37,11.28,11.28,0,0,1-2.41,7.37,11.66,11.66,0,0,1-6.5,3.91,50.46,50.46,0,0,1-10.17.68h-1.15Zm-3.85-3.2h.64V20.62h4.36A48.6,48.6,0,0,0,179,20a8.49,8.49,0,0,0,4.77-2.82,8.09,8.09,0,0,0,1.68-5.34,8,8,0,0,0-1.73-5.32,8.22,8.22,0,0,0-4.54-2.81c-1-.24-3.23-.53-8.53-.53h-6.07Zm8.77-19.92-8.13-.1V3.77h8.42a17.63,17.63,0,0,1,6.21.8,7.37,7.37,0,0,1,3.52,2.9,8,8,0,0,1,1.31,4.42,8.12,8.12,0,0,1-1.31,4.47,7.54,7.54,0,0,1-3.64,2.94A18.3,18.3,0,0,1,173.35,20.13Zm-4.92-3.27,4.94.06a15.09,15.09,0,0,0,5.19-.61,4.3,4.3,0,0,0,2.12-1.7,4.86,4.86,0,0,0,.79-2.72,4.75,4.75,0,0,0-.79-2.67,4.23,4.23,0,0,0-2-1.67,14.74,14.74,0,0,0-5-.57h-5.21Z"/><path class="cls-3" d="M131.24,1.67h3.85V41.6h-3.85Z"/><path class="cls-3" d="M136.7,43.26h-7.06V0h7.06Zm-3.85-3.33h.64V3.33h-.64Z"/><path class="cls-3" d="M218.11,1.61l18.73,40h-4.16l-6.82-14.18h-16.6l-6.75,14.18h-4.3l19-40Zm-.48,8.18-6.61,14H224.2Z"/><path class="cls-3" d="M239.36,43.26h-7.69l-6.82-14.19H210.28l-6.76,14.19h-7.84L216.15,0h3Zm-5.67-3.21h.63L217.63,4.38,200.75,40.05h.74l6.75-14.19h18.64Zm-7-14.7H208.49L217.63,6Zm-13.17-3.21h8.11l-4-8.59Z"/><path class="cls-3" d="M78.88,33.7l4.09-2q4.32,6.36,10,6.36a11.55,11.55,0,0,0,4.55-.9,7.53,7.53,0,0,0,3.24-2.42,5.39,5.39,0,0,0,1.11-3.22,5.73,5.73,0,0,0-1.63-3.8A36.93,36.93,0,0,0,92,21.58q-6-3.64-7.49-5.27a8.46,8.46,0,0,1-2.56-5.89,7.65,7.65,0,0,1,1.51-4.59,10.1,10.1,0,0,1,4.24-3.26,14.76,14.76,0,0,1,5.94-1.19A15.12,15.12,0,0,1,100,2.73a20.31,20.31,0,0,1,6.27,5l-3.93,2.39a17.39,17.39,0,0,0-4.63-3.8,9.51,9.51,0,0,0-4.17-.92,7.57,7.57,0,0,0-4.76,1.42,4.24,4.24,0,0,0-1.85,3.48,5,5,0,0,0,.65,2.44,9.58,9.58,0,0,0,2.39,2.56q1,.74,6.22,3.85,6.25,3.7,8.57,6.58a9.22,9.22,0,0,1,2.33,5.79q0,4.19-4,7.28a15.27,15.27,0,0,1-9.67,3.09,17,17,0,0,1-8-1.87A18.84,18.84,0,0,1,78.88,33.7Z"/><path class="cls-3" d="M93.41,43.23a18.24,18.24,0,0,1-8.59-2,20.31,20.31,0,0,1-7.08-6.72l-.91-1.33L83.45,30l.67,1c2.62,3.88,5.52,5.76,8.83,5.76a10.32,10.32,0,0,0,4-.79,6.29,6.29,0,0,0,2.67-2,4,4,0,0,0,.84-2.4,4.38,4.38,0,0,0-1.29-2.89,35.86,35.86,0,0,0-7.92-5.91c-4.17-2.52-6.73-4.33-7.81-5.52a9.88,9.88,0,0,1-2.91-6.82A9,9,0,0,1,82.31,5,11.43,11.43,0,0,1,87.12,1.3a17,17,0,0,1,13.43.17,21.82,21.82,0,0,1,6.71,5.29L108.4,8l-6.33,3.84-.76-.82a16.61,16.61,0,0,0-4.23-3.5,8.29,8.29,0,0,0-3.57-.78,6.21,6.21,0,0,0-3.92,1.13,2.88,2.88,0,0,0-1.31,2.39A3.56,3.56,0,0,0,88.76,12a7.91,7.91,0,0,0,2,2.16c.38.3,1.76,1.2,6,3.74s7.28,4.83,9,6.9a10.55,10.55,0,0,1,2.63,6.66c0,3.23-1.52,6-4.51,8.37A16.74,16.74,0,0,1,93.41,43.23ZM81,34.23a16.11,16.11,0,0,0,5.12,4.52,15.55,15.55,0,0,0,7.31,1.72,13.81,13.81,0,0,0,8.82-2.8c2.32-1.8,3.45-3.83,3.45-6.19a8,8,0,0,0-2-4.93c-1.44-1.78-4.2-3.88-8.2-6.25-4.79-2.83-5.93-3.61-6.36-3.94a10.5,10.5,0,0,1-2.75-3,6.36,6.36,0,0,1-.83-3.11,5.62,5.62,0,0,1,2.39-4.58A9,9,0,0,1,93.51,4,10.92,10.92,0,0,1,98.28,5a16.69,16.69,0,0,1,4.26,3.29l1.51-.91A16.79,16.79,0,0,0,99.4,4a14.2,14.2,0,0,0-11.18-.15,8.69,8.69,0,0,0-3.67,2.81,6.16,6.16,0,0,0-1.24,3.77,7.09,7.09,0,0,0,2.17,4.94c.63.69,2.37,2.11,7.21,5,4.15,2.51,7,4.62,8.57,6.45a7.14,7.14,0,0,1,2,4.72,6.77,6.77,0,0,1-1.38,4A9,9,0,0,1,98,38.47a13,13,0,0,1-5.09,1c-3.93,0-7.44-2-10.43-6Z"/><path class="cls-4" d="M77.39,59.48a4.36,4.36,0,0,0,2.21.62c1.25,0,2-.66,2-1.62s-.51-1.41-1.8-1.9c-1.55-.55-2.51-1.36-2.51-2.7,0-1.49,1.23-2.59,3.08-2.59a4.24,4.24,0,0,1,2.11.47l-.34,1a3.8,3.8,0,0,0-1.81-.45c-1.3,0-1.8.78-1.8,1.43,0,.89.58,1.33,1.9,1.83,1.61.63,2.43,1.41,2.43,2.81s-1.09,2.74-3.34,2.74a4.91,4.91,0,0,1-2.43-.61Z"/><path class="cls-4" d="M79.51,61.33A5.11,5.11,0,0,1,77,60.69l-.13-.09.44-1.44.23.14a4.18,4.18,0,0,0,2.1.59c1.1,0,1.78-.54,1.78-1.41s-.43-1.23-1.66-1.7c-1.81-.65-2.66-1.57-2.66-2.9,0-1.65,1.36-2.8,3.3-2.8a4.53,4.53,0,0,1,2.21.49l.15.09-.47,1.4L82,52.94a3.67,3.67,0,0,0-1.71-.42c-1.1,0-1.59.61-1.59,1.22s.43,1.12,1.76,1.64c1.8.69,2.57,1.59,2.57,3S82.13,61.33,79.51,61.33Zm-2.18-.91a5,5,0,0,0,2.18.49c1.9,0,3.13-1,3.13-2.53,0-1.22-.67-2-2.3-2.61-1.32-.51-2-1-2-2,0-.79.63-1.64,2-1.64a4.17,4.17,0,0,1,1.69.36l.2-.6a4.31,4.31,0,0,0-1.85-.36c-1.69,0-2.87,1-2.87,2.38,0,1.13.75,1.93,2.37,2.5,1.17.45,1.94,1,1.94,2.1s-.87,1.83-2.2,1.83a4.49,4.49,0,0,1-2.09-.52Z"/><path class="cls-4" d="M85.26,57.78a2.2,2.2,0,0,0,2.35,2.38,4.68,4.68,0,0,0,1.9-.35l.21.89a5.72,5.72,0,0,1-2.28.42,3.18,3.18,0,0,1-3.37-3.45c0-2.07,1.22-3.69,3.22-3.69,2.23,0,2.83,2,2.83,3.22a3.54,3.54,0,0,1-.05.58Zm3.65-.89a1.76,1.76,0,0,0-1.72-2,2.06,2.06,0,0,0-1.91,2Z"/><path class="cls-4" d="M87.44,61.33a3.4,3.4,0,0,1-3.58-3.66c0-2.3,1.41-3.9,3.43-3.9,2.24,0,3,1.85,3,3.43,0,.23,0,.42,0,.55l0,.24H85.48a2,2,0,0,0,2.13,2,4.14,4.14,0,0,0,1.81-.34l.23-.1L90,60.82l-.15.07A5.79,5.79,0,0,1,87.44,61.33Zm-.15-7.14c-1.77,0-3,1.43-3,3.48a3,3,0,0,0,3.16,3.24,5.45,5.45,0,0,0,2-.34l-.11-.48a4.87,4.87,0,0,1-1.75.28,2.42,2.42,0,0,1-2.56-2.58v-.22h4.84c0-.1,0-.23,0-.37C89.9,56.89,89.83,54.19,87.29,54.19Zm1.83,2.91H85l0-.23a2.25,2.25,0,0,1,2.12-2.21,1.78,1.78,0,0,1,1.33.51,2.44,2.44,0,0,1,.6,1.72Zm-3.6-.42H88.7a2,2,0,0,0-.48-1.21,1.37,1.37,0,0,0-1-.39A1.81,1.81,0,0,0,85.52,56.68Z"/><path class="cls-4" d="M91.65,56.27c0-.81,0-1.5-.05-2.14h1.08l0,1.35h0a2.05,2.05,0,0,1,1.9-1.5A1.25,1.25,0,0,1,95,54v1.17a1.71,1.71,0,0,0-.42,0,1.75,1.75,0,0,0-1.67,1.6,3.34,3.34,0,0,0-.06.58V61H91.65Z"/><path class="cls-4" d="M93.09,61.19H91.44V56.27c0-.88,0-1.54,0-2.12l0-.23h1.52l0,.82a2.07,2.07,0,0,1,2.17-.92l.16,0v1.61L95,55.4a1.5,1.5,0,0,0-1.84,1.39,2.87,2.87,0,0,0-.06.54Zm-1.23-.42h.81V57.33a3.49,3.49,0,0,1,.06-.61,2,2,0,0,1,1.88-1.78h.21v-.76h-.14A1.85,1.85,0,0,0,93,55.54l0,.15h-.41l0-1.35h-.66c0,.54,0,1.15,0,1.93Z"/><path class="cls-4" d="M97.11,54.13,98.45,58A16.52,16.52,0,0,1,99,59.73h0c.15-.56.35-1.13.58-1.75L101,54.13h1.3L99.57,61H98.38l-2.6-6.85Z"/><path class="cls-4" d="M99.71,61.19H98.24l-2.77-7.27h1.79l1.39,4c.15.42.28.79.38,1.14.13-.39.26-.77.4-1.14l1.38-4h1.76Zm-1.18-.42h.9L102,54.34h-.84l-1.29,3.71c-.2.56-.41,1.16-.57,1.74l0,.15h-.33l-.08-.15a16.68,16.68,0,0,0-.55-1.74L97,54.34h-.88Z"/><path class="cls-4" d="M104.81,52.21A.73.73,0,0,1,104,53a.74.74,0,0,1-.75-.76.76.76,0,0,1,.78-.78A.73.73,0,0,1,104.81,52.21ZM103.43,61V54.13h1.24V61Z"/><path class="cls-4" d="M104.88,61.19h-1.66V53.92h1.66Zm-1.24-.42h.82V54.34h-.82Zm.38-7.59a.94.94,0,0,1-1-1,1,1,0,0,1,1-1,1,1,0,0,1,1,1,.93.93,0,0,1-.25.68A1,1,0,0,1,104,53.18Zm0-1.54a.55.55,0,0,0-.57.57.53.53,0,0,0,.54.55.61.61,0,0,0,.44-.16.49.49,0,0,0,.14-.38h0A.53.53,0,0,0,104.05,51.64Z"/><path class="cls-4" d="M111.62,60.72a4.6,4.6,0,0,1-2,.4,3.25,3.25,0,0,1-3.41-3.49A3.48,3.48,0,0,1,109.92,54a4.16,4.16,0,0,1,1.72.35l-.28,1a2.87,2.87,0,0,0-1.44-.33,2.58,2.58,0,0,0,0,5.15,3.45,3.45,0,0,0,1.52-.34Z"/><path class="cls-4" d="M109.65,61.33a3.46,3.46,0,0,1-3.62-3.7,3.7,3.7,0,0,1,3.89-3.85,4.27,4.27,0,0,1,1.82.38l.16.07-.41,1.39-.23-.13a2.65,2.65,0,0,0-1.34-.3,2.37,2.37,0,0,0,0,4.73,3.45,3.45,0,0,0,1.44-.32l.23-.1.31,1.34-.15.07A4.84,4.84,0,0,1,109.65,61.33Zm.27-7.13a3.26,3.26,0,0,0-3.47,3.43,3,3,0,0,0,3.2,3.28,4.57,4.57,0,0,0,1.72-.31l-.12-.52a3.52,3.52,0,0,1-1.37.26,2.79,2.79,0,0,1,0-5.57,3.28,3.28,0,0,1,1.31.24l.16-.55A4.21,4.21,0,0,0,109.92,54.2Z"/><path class="cls-4" d="M114.45,52.21a.73.73,0,0,1-.79.76.74.74,0,0,1-.75-.76.76.76,0,0,1,.78-.78A.73.73,0,0,1,114.45,52.21ZM113.07,61V54.13h1.24V61Z"/><path class="cls-4" d="M114.52,61.19h-1.66V53.92h1.66Zm-1.24-.42h.82V54.34h-.82Zm.38-7.59a.94.94,0,0,1-1-1,1,1,0,0,1,1-1,1,1,0,0,1,1,1,.93.93,0,0,1-.25.68A1,1,0,0,1,113.66,53.18Zm0-1.54a.55.55,0,0,0-.57.57.53.53,0,0,0,.54.55.65.65,0,0,0,.45-.16.52.52,0,0,0,.13-.38h0A.53.53,0,0,0,113.69,51.64Z"/><path class="cls-4" d="M122.57,57.5a3.35,3.35,0,0,1-3.41,3.64,3.26,3.26,0,0,1-3.28-3.53,3.34,3.34,0,0,1,3.4-3.63A3.24,3.24,0,0,1,122.57,57.5Zm-5.43.07c0,1.5.86,2.63,2.08,2.63s2.08-1.12,2.08-2.66c0-1.16-.58-2.63-2-2.63S117.14,56.27,117.14,57.57Z"/><path class="cls-4" d="M119.16,61.35a3.47,3.47,0,0,1-3.49-3.74,3.57,3.57,0,0,1,3.61-3.84,3.46,3.46,0,0,1,3.5,3.73A3.58,3.58,0,0,1,119.16,61.35Zm.12-7.16a3.13,3.13,0,0,0-3.19,3.42,3.06,3.06,0,0,0,3.07,3.31,3.13,3.13,0,0,0,3.2-3.42A3,3,0,0,0,119.28,54.19Zm-.06,6.22c-1.33,0-2.29-1.19-2.29-2.84,0-1.43.72-2.87,2.32-2.87s2.26,1.47,2.26,2.84C121.51,59.18,120.52,60.41,119.22,60.41Zm0-5.29c-1.31,0-1.9,1.23-1.9,2.45,0,1.4.79,2.42,1.87,2.42s1.87-1,1.87-2.45C121.09,56.7,120.7,55.12,119.25,55.12Z"/><path class="cls-4" d="M124,59.71a3.25,3.25,0,0,0,1.64.49c.9,0,1.33-.45,1.33-1s-.36-.92-1.28-1.26c-1.23-.44-1.81-1.11-1.81-1.94a2.11,2.11,0,0,1,2.37-2,3.37,3.37,0,0,1,1.68.42l-.31.91a2.68,2.68,0,0,0-1.4-.4c-.74,0-1.15.42-1.15.93s.41.82,1.3,1.16c1.19.46,1.8,1,1.8,2.07,0,1.2-.93,2-2.56,2a3.81,3.81,0,0,1-1.92-.47Z"/><path class="cls-4" d="M125.58,61.33a4.15,4.15,0,0,1-2-.49l-.15-.09.45-1.37.23.15a3,3,0,0,0,1.53.46c.7,0,1.12-.3,1.12-.81s-.18-.71-1.14-1.06c-1.61-.57-2-1.48-2-2.13a2.34,2.34,0,0,1,2.58-2.22,3.71,3.71,0,0,1,1.79.45l.14.09-.45,1.32-.22-.15a2.52,2.52,0,0,0-1.29-.36c-.57,0-.94.28-.94.72s.25.62,1.17,1c1.33.51,1.93,1.2,1.93,2.26C128.35,60.44,127.26,61.33,125.58,61.33Zm-1.67-.78a3.83,3.83,0,0,0,1.67.36c1.45,0,2.35-.7,2.35-1.84,0-.88-.48-1.42-1.66-1.87-.82-.31-1.44-.61-1.44-1.36a1.21,1.21,0,0,1,1.36-1.14,2.94,2.94,0,0,1,1.28.3l.17-.5a3.29,3.29,0,0,0-1.42-.31,1.92,1.92,0,0,0-2.16,1.8c0,.75.57,1.34,1.67,1.73.88.33,1.42.68,1.42,1.46,0,.57-.41,1.23-1.54,1.23a3.52,3.52,0,0,1-1.53-.39Z"/><path class="cls-4" d="M134,51.44V61h-1.23V51.44Z"/><path class="cls-4" d="M134.21,61.19h-1.65v-10h1.65ZM133,60.77h.81V51.65H133Z"/><path class="cls-4" d="M136.25,56c0-.7,0-1.28-.06-1.85h1.11l.07,1.13h0A2.51,2.51,0,0,1,139.66,54c1,0,2.42.56,2.42,2.91V61h-1.25V57c0-1.1-.41-2-1.58-2a1.77,1.77,0,0,0-1.67,1.27,1.73,1.73,0,0,0-.08.58V61h-1.25Z"/><path class="cls-4" d="M142.29,61.19h-1.67V57c0-.82-.23-1.81-1.37-1.81a1.55,1.55,0,0,0-1.47,1.12,1.64,1.64,0,0,0-.07.52v4.33H136V56c0-.75,0-1.32-.06-1.84v-.23h1.52l0,.77a2.76,2.76,0,0,1,2.12-.92c1.21,0,2.63.81,2.63,3.12ZM141,60.77h.83V56.89c0-2.57-1.84-2.7-2.21-2.7a2.29,2.29,0,0,0-2.08,1.17l-.06.11h-.32l0-.19-.06-.94h-.68c0,.47,0,1,0,1.65v4.78h.82V56.86a2,2,0,0,1,.1-.65,2,2,0,0,1,1.87-1.41c1.14,0,1.79.81,1.79,2.23Z"/><path class="cls-4" d="M145.54,52.17v2h1.78v.95h-1.78v3.69c0,.85.24,1.33.93,1.33a2.85,2.85,0,0,0,.72-.08l.06.93a3,3,0,0,1-1.1.17,1.74,1.74,0,0,1-1.35-.52,2.57,2.57,0,0,1-.48-1.79V55.08h-1.06v-.95h1.06V52.49Z"/><path class="cls-4" d="M146.15,61.33a2,2,0,0,1-1.51-.59,2.71,2.71,0,0,1-.53-1.92V55.29h-1.06V53.92h1.06V52.33l1.64-.44v2h1.78v1.37h-1.78v3.48c0,.93.29,1.12.72,1.12a2.35,2.35,0,0,0,.67-.08l.25-.06.08,1.34-.14.06A3.25,3.25,0,0,1,146.15,61.33Zm-2.68-6.46h1.06v4a2.37,2.37,0,0,0,.42,1.63,1.55,1.55,0,0,0,1.2.46,3.15,3.15,0,0,0,.88-.11l0-.53a2.66,2.66,0,0,1-.53,0c-1.14,0-1.14-1.16-1.14-1.54v-3.9h1.78v-.53h-1.78v-1.9l-.8.21v1.69h-1.06Z"/><path class="cls-4" d="M149.33,57.78a2.19,2.19,0,0,0,2.35,2.38,4.59,4.59,0,0,0,1.89-.35l.21.89a5.62,5.62,0,0,1-2.27.42,3.18,3.18,0,0,1-3.37-3.45c0-2.07,1.22-3.69,3.21-3.69,2.24,0,2.83,2,2.83,3.22a5.79,5.79,0,0,1,0,.58Zm3.65-.89a1.78,1.78,0,0,0-1.73-2,2.06,2.06,0,0,0-1.91,2Z"/><path class="cls-4" d="M151.51,61.33a3.39,3.39,0,0,1-3.58-3.66c0-2.3,1.41-3.9,3.42-3.9,2.24,0,3,1.85,3,3.43a3.67,3.67,0,0,1,0,.55l0,.24h-4.77a2,2,0,0,0,2.13,2,4.18,4.18,0,0,0,1.81-.34l.23-.1.31,1.31-.16.07A5.77,5.77,0,0,1,151.51,61.33Zm-.16-7.14c-1.77,0-3,1.43-3,3.48a3,3,0,0,0,3.16,3.24,5.49,5.49,0,0,0,2-.34l-.12-.48a4.77,4.77,0,0,1-1.74.28,2.41,2.41,0,0,1-2.56-2.58v-.22H154c0-.1,0-.23,0-.37C154,56.89,153.9,54.19,151.35,54.19Zm1.83,2.91H149.1l0-.23a2.26,2.26,0,0,1,2.12-2.21,1.82,1.82,0,0,1,1.34.51,2.49,2.49,0,0,1,.6,1.72Zm-3.59-.42h3.17a1.9,1.9,0,0,0-.47-1.21,1.41,1.41,0,0,0-1-.39A1.79,1.79,0,0,0,149.59,56.68Z"/><path class="cls-4" d="M161.62,54.13c0,.5-.06,1-.06,1.88v4c0,1.57-.31,2.53-1,3.13a3.62,3.62,0,0,1-2.49.82,4.37,4.37,0,0,1-2.27-.57l.31-.95a3.79,3.79,0,0,0,2,.54c1.27,0,2.2-.67,2.2-2.39v-.76h0A2.44,2.44,0,0,1,158.14,61a3.06,3.06,0,0,1-2.92-3.34c0-2.32,1.51-3.63,3.08-3.63a2.29,2.29,0,0,1,2.14,1.18h0l.06-1Zm-1.29,2.7a2,2,0,0,0-.07-.56A1.81,1.81,0,0,0,158.52,55c-1.19,0-2,1-2,2.59,0,1.35.68,2.46,2,2.46a1.82,1.82,0,0,0,1.73-1.27,2.16,2.16,0,0,0,.1-.66Z"/><path class="cls-4" d="M158.09,64.15a4.56,4.56,0,0,1-2.39-.6l-.13-.09L156,62.1l.23.14a3.52,3.52,0,0,0,1.9.51c1.32,0,2-.73,2-2.18v-.19a2.74,2.74,0,0,1-2,.78A3.28,3.28,0,0,1,155,57.61c0-2.5,1.7-3.84,3.29-3.84a2.54,2.54,0,0,1,2,.82l0-.67h1.51l0,.22c0,.52,0,1.06,0,1.87v4c0,1.62-.32,2.64-1.05,3.28A3.85,3.85,0,0,1,158.09,64.15Zm-2-.87a4.47,4.47,0,0,0,2,.45,3.46,3.46,0,0,0,2.35-.77c.63-.56.91-1.48.91-3V56c0-.71,0-1.22,0-1.67h-.67l-.05,1h-.33l-.09-.12a2,2,0,0,0-1.95-1.07c-1.42,0-2.87,1.17-2.87,3.42a2.84,2.84,0,0,0,2.71,3.13,2.23,2.23,0,0,0,2-1l.06-.11h.33l0,.22v.76c0,1.68-.86,2.6-2.41,2.6a4.18,4.18,0,0,1-1.89-.44Zm2.43-3.07c-1.33,0-2.23-1.07-2.23-2.67s.9-2.8,2.25-2.8a2,2,0,0,1,1.94,1.47,2,2,0,0,1,.08.62v1.24a2.48,2.48,0,0,1-.11.73A2,2,0,0,1,158.5,60.21Zm0-5.05c-1.1,0-1.83,1-1.83,2.38,0,1,.47,2.25,1.81,2.25A1.6,1.6,0,0,0,160,58.66a1.83,1.83,0,0,0,.09-.59V56.83a1.54,1.54,0,0,0-.06-.49A1.6,1.6,0,0,0,158.52,55.16Z"/><path class="cls-4" d="M163.53,56.27c0-.81,0-1.5-.05-2.14h1.09l0,1.35h0a2.07,2.07,0,0,1,1.9-1.5,1.25,1.25,0,0,1,.35,0v1.17a1.71,1.71,0,0,0-.42,0,1.75,1.75,0,0,0-1.67,1.6,3.34,3.34,0,0,0-.06.58V61h-1.23Z"/><path class="cls-4" d="M165,61.19h-1.65V56.27c0-.88,0-1.54,0-2.12l0-.23h1.52l0,.82a2.07,2.07,0,0,1,2.16-.93l.16,0v1.61l-.25-.06a1.48,1.48,0,0,0-.38,0A1.53,1.53,0,0,0,165,56.79a2.87,2.87,0,0,0-.06.54Zm-1.23-.42h.81V57.33a3.49,3.49,0,0,1,.06-.61,2,2,0,0,1,1.88-1.78h.21v-.76h-.14a1.85,1.85,0,0,0-1.7,1.35l-.05.15h-.41l0-1.35h-.66c0,.54,0,1.15,0,1.93Z"/><path class="cls-4" d="M171.88,61l-.1-.86h0a2.59,2.59,0,0,1-2.1,1,2,2,0,0,1-2.09-2c0-1.66,1.47-2.56,4.11-2.55v-.14a1.4,1.4,0,0,0-1.55-1.58,3.31,3.31,0,0,0-1.78.51l-.29-.83a4.34,4.34,0,0,1,2.25-.6c2.1,0,2.61,1.43,2.61,2.8v2.56A9.2,9.2,0,0,0,173,61Zm-.19-3.5c-1.36,0-2.9.22-2.9,1.55A1.11,1.11,0,0,0,170,60.22a1.7,1.7,0,0,0,1.65-1.15,1.4,1.4,0,0,0,.07-.4Z"/><path class="cls-4" d="M169.64,61.35a2.17,2.17,0,0,1-2.3-2.18,2.31,2.31,0,0,1,.67-1.7,4.9,4.9,0,0,1,3.44-1.06,1.17,1.17,0,0,0-1.34-1.3,3.16,3.16,0,0,0-1.67.47l-.23.15-.42-1.23.14-.09a4.4,4.4,0,0,1,2.36-.64c1.82,0,2.82,1.07,2.82,3v2.56a8.61,8.61,0,0,0,.11,1.6l0,.25h-1.57l-.07-.62A2.82,2.82,0,0,1,169.64,61.35Zm2-4.52a4.73,4.73,0,0,0-3.3.94,1.9,1.9,0,0,0-.55,1.4,1.74,1.74,0,0,0,1.88,1.75,2.33,2.33,0,0,0,1.92-.92l.07-.09h.29l.07.18.07.68h.7a11.31,11.31,0,0,1-.08-1.43V56.78c0-1.72-.8-2.59-2.39-2.59a4.13,4.13,0,0,0-2,.49l.14.41a3.8,3.8,0,0,1,1.67-.4,1.6,1.6,0,0,1,1.76,1.79v.35h-.26ZM170,60.43a1.3,1.3,0,0,1-1.39-1.4A1.49,1.49,0,0,1,169,58a3.87,3.87,0,0,1,2.69-.68h.2v1.39a1.53,1.53,0,0,1-.08.47A1.92,1.92,0,0,1,170,60.43Zm1.51-2.74a3.1,3.1,0,0,0-2.17.57A1,1,0,0,0,169,59a.89.89,0,0,0,1,1,1.5,1.5,0,0,0,1.45-1,1,1,0,0,0,.06-.33Z"/><path class="cls-4" d="M174.9,50.93h1.24V61H174.9Z"/><path class="cls-4" d="M176.35,61.19h-1.66V50.72h1.66Zm-1.24-.42h.82V51.15h-.82Z"/><path class="cls-4" d="M178.93,57.78a2.19,2.19,0,0,0,2.35,2.38,4.59,4.59,0,0,0,1.89-.35l.21.89a5.62,5.62,0,0,1-2.27.42,3.18,3.18,0,0,1-3.37-3.45C177.74,55.6,179,54,181,54c2.24,0,2.83,2,2.83,3.22a5.79,5.79,0,0,1,0,.58Zm3.65-.89a1.78,1.78,0,0,0-1.73-2,2.06,2.06,0,0,0-1.91,2Z"/><path class="cls-4" d="M181.11,61.33a3.39,3.39,0,0,1-3.58-3.66c0-2.3,1.41-3.9,3.42-3.9,2.24,0,3,1.85,3,3.43a3.67,3.67,0,0,1,0,.55l0,.24h-4.77a2,2,0,0,0,2.13,2,4.18,4.18,0,0,0,1.81-.34l.23-.1.31,1.31-.16.07A5.77,5.77,0,0,1,181.11,61.33ZM181,54.19c-1.77,0-3,1.43-3,3.48a3,3,0,0,0,3.16,3.24,5.49,5.49,0,0,0,2-.34l-.12-.48a4.77,4.77,0,0,1-1.74.28,2.41,2.41,0,0,1-2.56-2.58v-.22h4.84c0-.1,0-.23,0-.37C183.57,56.89,183.5,54.19,181,54.19Zm1.83,2.91H178.7l0-.23a2.26,2.26,0,0,1,2.12-2.21,1.82,1.82,0,0,1,1.34.51,2.49,2.49,0,0,1,.6,1.72Zm-3.59-.42h3.17a1.9,1.9,0,0,0-.47-1.21,1.4,1.4,0,0,0-1-.39A1.79,1.79,0,0,0,179.19,56.68Z"/><path class="cls-4" d="M185.15,59.71a3.25,3.25,0,0,0,1.64.49c.9,0,1.33-.45,1.33-1s-.36-.92-1.28-1.26C185.61,57.48,185,56.81,185,56a2.12,2.12,0,0,1,2.37-2,3.37,3.37,0,0,1,1.68.42l-.31.91a2.65,2.65,0,0,0-1.4-.4c-.74,0-1.15.42-1.15.93s.41.82,1.3,1.16c1.19.46,1.8,1,1.8,2.07,0,1.2-.93,2-2.56,2a3.81,3.81,0,0,1-1.92-.47Z"/><path class="cls-4" d="M186.76,61.33a4.2,4.2,0,0,1-2-.49l-.15-.09.45-1.37.23.15a3,3,0,0,0,1.53.46c.7,0,1.12-.3,1.12-.81s-.18-.71-1.14-1.06c-1.61-.57-2-1.48-2-2.13a2.34,2.34,0,0,1,2.58-2.22,3.71,3.71,0,0,1,1.79.45l.14.09-.45,1.32-.22-.15a2.52,2.52,0,0,0-1.29-.36c-.57,0-.94.28-.94.72s.25.62,1.17,1c1.34.51,1.93,1.2,1.93,2.26C189.53,60.44,188.44,61.33,186.76,61.33Zm-1.67-.78a3.83,3.83,0,0,0,1.67.36c1.45,0,2.35-.7,2.35-1.84,0-.88-.48-1.42-1.66-1.87-.82-.31-1.44-.61-1.44-1.36a1.21,1.21,0,0,1,1.36-1.14,2.94,2.94,0,0,1,1.28.3l.17-.5a3.29,3.29,0,0,0-1.42-.31,1.92,1.92,0,0,0-2.16,1.8c0,.75.57,1.34,1.67,1.73.88.33,1.42.68,1.42,1.46,0,.57-.41,1.23-1.54,1.23a3.48,3.48,0,0,1-1.52-.39Z"/><path class="cls-4" d="M194,51.56a14.22,14.22,0,0,1,2.37-.19,3.92,3.92,0,0,1,2.67.8,2.56,2.56,0,0,1,.84,2,2.83,2.83,0,0,1-.74,2,4,4,0,0,1-2.91,1,4.41,4.41,0,0,1-1-.08V61H194Zm1.23,4.6a4.24,4.24,0,0,0,1,.09c1.49,0,2.39-.72,2.39-2s-.89-1.87-2.25-1.87a5,5,0,0,0-1.16.1Z"/><path class="cls-4" d="M195.4,61.19h-1.66V51.38l.18,0a15.07,15.07,0,0,1,2.4-.19,4.1,4.1,0,0,1,2.81.85,2.79,2.79,0,0,1,.91,2.15,3,3,0,0,1-.8,2.18,4.12,4.12,0,0,1-3.07,1.12,5.06,5.06,0,0,1-.77-.05Zm-1.24-.42H195V56.89l.26.07a4.84,4.84,0,0,0,.94.07,3.72,3.72,0,0,0,2.77-1,2.6,2.6,0,0,0,.67-1.89,2.39,2.39,0,0,0-.76-1.84,3.73,3.73,0,0,0-2.53-.74,13.45,13.45,0,0,0-2.16.16Zm2-4.3a4.39,4.39,0,0,1-1.07-.11l-.16,0v-4l.16,0a5.17,5.17,0,0,1,1.21-.11c1.57,0,2.46.76,2.46,2.08S197.83,56.47,196.2,56.47Zm-.8-.48a4.54,4.54,0,0,0,.8,0c1.41,0,2.18-.64,2.18-1.82,0-1.45-1.27-1.66-2-1.66a6.54,6.54,0,0,0-.94.06Z"/><path class="cls-4" d="M204.86,61l-.1-.86h0a2.56,2.56,0,0,1-2.09,1,2,2,0,0,1-2.09-2c0-1.66,1.47-2.56,4.11-2.55v-.14a1.4,1.4,0,0,0-1.55-1.58,3.37,3.37,0,0,0-1.79.51l-.28-.83a4.34,4.34,0,0,1,2.25-.6c2.09,0,2.6,1.43,2.6,2.8v2.56A9.14,9.14,0,0,0,206,61Zm-.19-3.5c-1.36,0-2.9.22-2.9,1.55A1.11,1.11,0,0,0,203,60.22a1.7,1.7,0,0,0,1.65-1.15,1.4,1.4,0,0,0,.07-.4Z"/><path class="cls-4" d="M202.62,61.35a2.17,2.17,0,0,1-2.3-2.18,2.31,2.31,0,0,1,.67-1.7,4.9,4.9,0,0,1,3.44-1.06,1.17,1.17,0,0,0-1.34-1.3,3.16,3.16,0,0,0-1.67.47l-.23.15-.42-1.23.14-.09a4.4,4.4,0,0,1,2.36-.64c1.81,0,2.81,1.07,2.81,3v2.56a9.57,9.57,0,0,0,.11,1.6l.05.25h-1.57l-.07-.62A2.86,2.86,0,0,1,202.62,61.35Zm2-4.52a4.72,4.72,0,0,0-3.29.94,1.9,1.9,0,0,0-.55,1.4,1.74,1.74,0,0,0,1.88,1.75,2.31,2.31,0,0,0,1.92-.93l.07-.08h.29l.06.18.08.68h.7a11.31,11.31,0,0,1-.08-1.43V56.78c0-1.72-.8-2.59-2.39-2.59a4.13,4.13,0,0,0-2,.49l.14.41a3.8,3.8,0,0,1,1.67-.4,1.6,1.6,0,0,1,1.76,1.79v.35h-.27ZM203,60.43a1.3,1.3,0,0,1-1.39-1.4A1.45,1.45,0,0,1,202,58a3.87,3.87,0,0,1,2.69-.68h.2v1.39a1.53,1.53,0,0,1-.08.47A1.92,1.92,0,0,1,203,60.43Zm1.51-2.74a3.1,3.1,0,0,0-2.17.57A1,1,0,0,0,202,59a.89.89,0,0,0,1,1,1.5,1.5,0,0,0,1.45-1,1,1,0,0,0,.06-.33Z"/><path class="cls-4" d="M207.88,56c0-.7,0-1.28-.06-1.85h1.11l.07,1.13h0A2.53,2.53,0,0,1,211.29,54c1,0,2.42.56,2.42,2.91V61h-1.25V57c0-1.1-.41-2-1.58-2a1.77,1.77,0,0,0-1.67,1.27,1.72,1.72,0,0,0-.09.58V61h-1.24Z"/><path class="cls-4" d="M213.92,61.19h-1.67V57c0-.82-.24-1.81-1.37-1.81a1.55,1.55,0,0,0-1.47,1.12,1.62,1.62,0,0,0-.08.52v4.33h-1.66V56c0-.75,0-1.32-.06-1.84l0-.23h1.53l0,.77a2.76,2.76,0,0,1,2.12-.92c1.21,0,2.63.81,2.63,3.12Zm-1.25-.42h.83V56.89c0-2.57-1.84-2.7-2.21-2.7a2.29,2.29,0,0,0-2.08,1.17l-.06.11h-.32l0-.19-.06-.94h-.68c0,.47,0,1,0,1.65v4.78h.82V56.86a2,2,0,0,1,.1-.65,2,2,0,0,1,1.87-1.41c1.14,0,1.79.81,1.79,2.23Z"/><path class="cls-4" d="M219.52,61l-.1-.86h0a2.56,2.56,0,0,1-2.09,1,2,2,0,0,1-2.09-2c0-1.66,1.47-2.56,4.11-2.55v-.14a1.4,1.4,0,0,0-1.55-1.58,3.37,3.37,0,0,0-1.79.51l-.28-.83a4.34,4.34,0,0,1,2.25-.6c2.09,0,2.6,1.43,2.6,2.8v2.56a9.14,9.14,0,0,0,.12,1.64Zm-.19-3.5c-1.36,0-2.9.22-2.9,1.55a1.11,1.11,0,0,0,1.17,1.19,1.71,1.71,0,0,0,1.66-1.15,1.4,1.4,0,0,0,.07-.4Z"/><path class="cls-4" d="M217.28,61.35a2.17,2.17,0,0,1-2.3-2.18,2.31,2.31,0,0,1,.67-1.7,4.9,4.9,0,0,1,3.44-1.06,1.17,1.17,0,0,0-1.34-1.3,3.16,3.16,0,0,0-1.67.47l-.23.15-.42-1.23.14-.09a4.38,4.38,0,0,1,2.36-.64c1.81,0,2.81,1.07,2.81,3v2.56a9.57,9.57,0,0,0,.11,1.6l.05.25h-1.57l-.07-.62A2.86,2.86,0,0,1,217.28,61.35Zm2-4.52a4.72,4.72,0,0,0-3.29.94,1.9,1.9,0,0,0-.55,1.4,1.74,1.74,0,0,0,1.88,1.75A2.33,2.33,0,0,0,219.2,60l.06-.09h.3l.06.18.08.68h.7a11.31,11.31,0,0,1-.08-1.43V56.78c0-1.72-.8-2.59-2.39-2.59a4.2,4.2,0,0,0-2,.49l.15.41a3.8,3.8,0,0,1,1.67-.4,1.6,1.6,0,0,1,1.76,1.79v.35h-.27Zm-1.64,3.6a1.3,1.3,0,0,1-1.38-1.4,1.45,1.45,0,0,1,.43-1.08,3.88,3.88,0,0,1,2.68-.68h.21v1.39a1.53,1.53,0,0,1-.08.47A1.92,1.92,0,0,1,217.6,60.43Zm1.52-2.74a3.13,3.13,0,0,0-2.18.57,1,1,0,0,0-.3.77.89.89,0,0,0,1,1,1.5,1.5,0,0,0,1.46-1,1,1,0,0,0,.06-.33Z"/><path class="cls-4" d="M222.54,56c0-.7,0-1.28-.06-1.85h1.09l.06,1.11h0A2.34,2.34,0,0,1,225.82,54a2,2,0,0,1,1.94,1.37h0a2.81,2.81,0,0,1,.76-.89,2.33,2.33,0,0,1,1.51-.48c.91,0,2.25.59,2.25,3v4H231.1V57.1c0-1.31-.48-2.11-1.49-2.11a1.61,1.61,0,0,0-1.47,1.14,1.92,1.92,0,0,0-.1.62V61h-1.22v-4.1c0-1.09-.48-1.89-1.43-1.89a1.72,1.72,0,0,0-1.54,1.25,1.74,1.74,0,0,0-.1.61V61h-1.21Z"/><path class="cls-4" d="M232.52,61.19h-1.63V57.1c0-1.26-.43-1.89-1.28-1.89a1.39,1.39,0,0,0-1.27,1,1.63,1.63,0,0,0-.09.55v4.44h-1.64V56.88c0-.4-.08-1.67-1.22-1.67a1.49,1.49,0,0,0-1.34,1.09,1.59,1.59,0,0,0-.09.55v4.34h-1.63V56c0-.75,0-1.32-.06-1.84l0-.23h1.52l0,.75a2.51,2.51,0,0,1,2-.9,2.21,2.21,0,0,1,2,1.16,2.91,2.91,0,0,1,.62-.64,2.55,2.55,0,0,1,1.64-.52c.41,0,2.46.15,2.46,3.18Zm-1.21-.42h.79V57c0-2-1-2.76-2-2.76a2.1,2.1,0,0,0-1.38.44,2.47,2.47,0,0,0-.71.82l-.06.11h-.27l-.08-.14a1.8,1.8,0,0,0-1.74-1.23,2.14,2.14,0,0,0-2,1.15l-.06.11h-.32l-.05-.2,0-.91h-.66c0,.47,0,1,0,1.65v4.78h.79V56.85a1.85,1.85,0,0,1,.12-.69,1.89,1.89,0,0,1,1.73-1.38c1,0,1.64.81,1.64,2.1v3.89h.8v-4a2.26,2.26,0,0,1,.11-.69,1.82,1.82,0,0,1,1.67-1.28c.63,0,1.7.31,1.7,2.32Z"/><path class="cls-4" d="M238.12,61l-.1-.86h0a2.59,2.59,0,0,1-2.1,1,2,2,0,0,1-2.09-2c0-1.66,1.47-2.56,4.12-2.55v-.14a1.41,1.41,0,0,0-1.56-1.58,3.31,3.31,0,0,0-1.78.51l-.29-.83a4.34,4.34,0,0,1,2.25-.6c2.1,0,2.61,1.43,2.61,2.8v2.56a9.2,9.2,0,0,0,.11,1.64Zm-.19-3.5c-1.35,0-2.9.22-2.9,1.55a1.11,1.11,0,0,0,1.18,1.19,1.69,1.69,0,0,0,1.65-1.15,1.12,1.12,0,0,0,.07-.4Zm.63-6.3-1.73,2h-.89l1.24-2Z"/><path class="cls-4" d="M235.88,61.35a2.17,2.17,0,0,1-2.3-2.18,2.31,2.31,0,0,1,.68-1.7,4.86,4.86,0,0,1,3.43-1.06,1.17,1.17,0,0,0-1.34-1.3,3.16,3.16,0,0,0-1.67.47l-.22.15L234,54.5l.14-.09a4.43,4.43,0,0,1,2.36-.64c1.82,0,2.82,1.07,2.82,3v2.56a8.61,8.61,0,0,0,.11,1.6l0,.25h-1.57l-.07-.62A2.82,2.82,0,0,1,235.88,61.35Zm2-4.52a4.73,4.73,0,0,0-3.3.94,1.94,1.94,0,0,0-.55,1.4,1.74,1.74,0,0,0,1.88,1.75,2.34,2.34,0,0,0,1.93-.93l.06-.08h.29l.07.18.08.68H239a11.54,11.54,0,0,1-.07-1.43V56.78c0-1.72-.81-2.59-2.4-2.59a4.13,4.13,0,0,0-2,.49l.14.41a3.8,3.8,0,0,1,1.67-.4,1.6,1.6,0,0,1,1.77,1.79v.35h-.27Zm-1.64,3.6a1.31,1.31,0,0,1-1.39-1.4,1.49,1.49,0,0,1,.43-1.08,3.86,3.86,0,0,1,2.69-.68h.2v1.39a1.53,1.53,0,0,1-.08.47A1.92,1.92,0,0,1,236.21,60.43Zm1.51-2.74a3.1,3.1,0,0,0-2.17.57,1,1,0,0,0-.31.77.89.89,0,0,0,1,1,1.49,1.49,0,0,0,1.45-1,1,1,0,0,0,.06-.33Zm-.79-4.28h-1.37L237.07,51H239Zm-.61-.42h.41l1.37-1.6h-.8Z"/></g></g></svg>