<svg width="33" height="33" viewBox="0 0 33 33" fill="none" xmlns="http://www.w3.org/2000/svg">
<g clip-path="url(#clip0_75_76)">
<path d="M33 16.6012C33 7.4313 25.6121 -0.00195312 16.5 -0.00195312C7.38375 0.000109375 -0.00411987 7.4313 -0.00411987 16.6032C-0.00411987 24.8883 6.03075 31.7564 13.9178 33.0022V21.4006H9.73088V16.6032H13.9219V12.9423C13.9219 8.78223 16.3866 6.48461 20.1548 6.48461C21.9615 6.48461 23.8487 6.80842 23.8487 6.80842V10.8922H21.7676C19.7196 10.8922 19.0802 12.173 19.0802 13.4868V16.6012H23.6548L22.9247 21.3985H19.0781V33.0001C26.9651 31.7544 33 24.8862 33 16.6012Z" fill="#F5F0E7"/>
</g>
<defs>
<clipPath id="clip0_75_76">
<rect width="33" height="33" fill="white"/>
</clipPath>
</defs>
</svg>
