<svg width="25" height="25" viewBox="0 0 25 25" fill="none" xmlns="http://www.w3.org/2000/svg">
<path d="M0 6.25C0 5.4212 0.32924 4.62634 0.915291 4.04029C1.50134 3.45424 2.2962 3.125 3.125 3.125H21.875C22.7038 3.125 23.4987 3.45424 24.0847 4.04029C24.6708 4.62634 25 5.4212 25 6.25V18.75C25 19.5788 24.6708 20.3737 24.0847 20.9597C23.4987 21.5458 22.7038 21.875 21.875 21.875H3.125C2.2962 21.875 1.50134 21.5458 0.915291 20.9597C0.32924 20.3737 0 19.5788 0 18.75V6.25ZM3.125 4.6875C2.7106 4.6875 2.31317 4.85212 2.02015 5.14515C1.72712 5.43817 1.5625 5.8356 1.5625 6.25V6.58906L12.5 13.1516L23.4375 6.58906V6.25C23.4375 5.8356 23.2729 5.43817 22.9799 5.14515C22.6868 4.85212 22.2894 4.6875 21.875 4.6875H3.125ZM23.4375 8.41094L16.0812 12.825L23.4375 17.3516V8.41094ZM23.3844 19.1547L14.5719 13.7312L12.5 14.9734L10.4281 13.7312L1.61563 19.1531C1.70442 19.4856 1.90049 19.7795 2.17342 19.9891C2.44635 20.1988 2.78085 20.3125 3.125 20.3125H21.875C22.2189 20.3125 22.5533 20.1991 22.8262 19.9898C23.0991 19.7804 23.2953 19.4869 23.3844 19.1547ZM1.5625 17.3516L8.91875 12.825L1.5625 8.41094V17.3516Z" fill="#525259"/>
</svg>
