<?xml version="1.0" standalone="no"?>
<!DOCTYPE svg PUBLIC "-//W3C//DTD SVG 20010904//EN"
 "http://www.w3.org/TR/2001/REC-SVG-20010904/DTD/svg10.dtd">
<svg version="1.0" xmlns="http://www.w3.org/2000/svg"
 width="544.000000pt" height="544.000000pt" viewBox="0 0 544.000000 544.000000"
 preserveAspectRatio="xMidYMid meet">
<metadata>
Created by potrace 1.14, written by Peter Selinger 2001-2017
</metadata>
<g transform="translate(0.000000,544.000000) scale(0.100000,-0.100000)"
fill="#000000" stroke="none">
<path d="M1184 5239 c-18 -20 -19 -47 -20 -713 -1 -380 -4 -713 -8 -741 -16
-113 -61 -211 -131 -280 -58 -57 -162 -105 -227 -105 -17 0 -38 -10 -52 -23
-25 -25 -24 24 -11 -502 3 -154 8 -356 10 -450 2 -93 7 -278 10 -410 3 -132 8
-319 10 -415 2 -96 7 -294 10 -440 4 -146 9 -317 10 -380 7 -250 7 -376 0
-400 -11 -43 -52 -64 -130 -68 -89 -4 -136 14 -158 61 -19 39 -18 107 9 952 3
105 8 249 10 320 5 209 22 749 29 960 4 123 10 317 19 635 2 52 -1 105 -5 118
-9 24 -40 39 -92 46 -72 10 -158 56 -213 114 -29 31 -87 122 -78 122 4 0 2 6
-4 13 -11 13 -28 71 -38 132 -4 22 -8 312 -9 645 -2 333 -3 610 -4 617 -4 41
-68 56 -101 23 -19 -19 -19 -33 -16 -662 4 -647 4 -643 36 -756 2 -4 4 -14 7
-22 10 -39 70 -142 105 -183 48 -57 142 -120 210 -142 29 -10 59 -22 65 -27 9
-8 11 -46 8 -147 -3 -75 -7 -221 -10 -326 -3 -104 -7 -266 -10 -360 -3 -93 -8
-246 -10 -340 -3 -93 -7 -235 -10 -315 -2 -80 -7 -237 -10 -350 -9 -275 -12
-392 -20 -670 -12 -381 -12 -382 5 -429 19 -55 70 -107 129 -133 60 -26 192
-32 253 -11 76 26 142 92 157 158 6 27 5 262 -3 590 -4 149 -9 360 -11 470 -8
326 -15 618 -20 820 -7 319 -14 600 -20 826 l-6 216 67 22 c170 56 293 193
349 390 l24 85 1 713 c1 719 0 743 -34 765 -21 14 -53 8 -72 -13z"/>
<path d="M2158 5255 c-2 -2 -25 -6 -51 -9 -75 -10 -188 -49 -262 -91 -86 -48
-183 -144 -218 -215 -63 -132 -65 -165 -82 -1190 -3 -195 -8 -499 -11 -674 -3
-221 -1 -336 7 -375 24 -120 94 -236 207 -344 56 -54 61 -61 57 -95 -2 -20 -7
-75 -10 -122 -3 -47 -7 -107 -10 -135 -9 -106 -18 -232 -19 -277 -1 -27 -3
-48 -6 -48 -3 0 -6 -24 -6 -53 -1 -52 -10 -181 -19 -267 -4 -49 -11 -136 -20
-275 -4 -49 -8 -106 -10 -125 -17 -154 -22 -312 -12 -350 21 -80 37 -114 84
-180 42 -58 167 -173 228 -209 109 -66 219 -46 279 52 l29 48 3 732 c12 2743
16 3959 15 4140 l-1 68 -85 -2 c-46 -1 -86 -3 -87 -4z m36 -913 c-10 -3245
-14 -3983 -27 -4002 -22 -36 -45 -34 -111 10 -111 72 -189 161 -220 252 -16
47 -16 107 -1 293 2 33 7 96 10 140 3 44 7 98 10 120 2 22 7 85 11 140 3 55 8
114 9 130 5 55 15 179 20 250 3 39 8 95 10 125 3 30 7 91 10 135 22 296 26
350 30 388 4 34 1 42 -27 65 -87 73 -152 141 -184 193 -66 109 -67 114 -64
429 4 556 15 1093 35 1660 5 144 33 219 114 300 72 72 246 146 347 148 l30 0
-2 -776z"/>
<path d="M3119 5258 c-6 -24 -2 -151 6 -157 5 -5 33 -12 60 -15 28 -4 64 -10
80 -13 36 -6 64 -10 88 -12 16 -1 17 -56 17 -1016 l0 -1014 -35 -6 c-63 -9
-99 -14 -160 -21 -33 -3 -64 -9 -68 -13 -4 -5 -7 -41 -5 -82 l3 -74 520 -1
c286 0 526 2 533 4 8 3 12 28 12 77 0 85 5 81 -110 89 -66 5 -155 12 -262 21
-18 2 -43 3 -54 4 l-22 1 0 359 -1 358 57 -4 c171 -11 412 -5 493 13 13 3 35
7 49 10 115 22 293 108 384 184 119 101 230 282 251 410 1 3 7 38 14 79 13 71
11 270 -3 330 -49 214 -151 350 -312 415 -55 23 -173 52 -254 63 -39 6 -1279
17 -1281 11z m1076 -161 c216 -36 334 -124 389 -291 28 -83 38 -236 23 -366
-11 -90 -26 -161 -39 -177 -6 -7 -7 -13 -4 -13 17 0 -64 -130 -109 -176 -60
-61 -121 -98 -218 -132 -67 -23 -84 -25 -252 -25 -166 1 -251 6 -260 15 -2 2
-4 35 -5 73 -1 73 -2 519 -2 545 1 8 1 133 1 277 1 244 2 262 18 261 23 -1
187 13 190 16 5 4 237 -2 268 -7z"/>
<path d="M896 5197 l-22 -22 0 -662 c1 -730 -2 -695 62 -695 62 0 60 -26 62
695 1 607 0 657 -16 676 -25 31 -60 34 -86 8z"/>
<path d="M626 5172 c-52 -11 -50 12 -50 -659 -1 -607 0 -625 18 -639 28 -20
69 -17 89 6 16 19 17 68 17 631 0 397 -4 617 -10 629 -13 25 -40 38 -64 32z"/>
<path d="M294 5105 c-14 -22 -16 -86 -16 -590 0 -507 1 -567 16 -590 19 -29
60 -33 90 -10 19 14 19 36 20 592 1 544 0 578 -17 600 -25 32 -71 31 -93 -2z"/>
<path d="M4070 2582 c-11 -25 -20 -48 -20 -52 0 -4 -57 -168 -126 -366 -69
-197 -130 -370 -134 -384 -5 -14 -31 -90 -60 -170 -28 -80 -53 -152 -55 -160
-2 -8 -25 -73 -50 -145 -49 -137 -151 -428 -255 -730 -35 -99 -68 -185 -74
-192 -6 -7 -24 -14 -41 -17 -16 -3 -52 -8 -80 -12 -27 -5 -53 -9 -57 -10 -5
-1 -11 -2 -16 -3 -4 0 -7 -36 -7 -78 l0 -78 388 -3 387 -2 0 80 c0 46 -4 81
-10 81 -5 1 -13 2 -17 3 -5 1 -46 6 -93 11 -47 5 -88 10 -92 11 -5 1 -21 2
-37 3 -34 1 -34 1 -1 101 12 36 23 70 24 75 2 6 24 78 51 160 l48 151 476 -1
476 0 27 -80 c46 -140 127 -399 125 -401 -1 -1 -29 -5 -62 -9 -140 -16 -197
-24 -202 -28 -1 -2 -4 -37 -5 -78 l-2 -74 432 -3 432 -2 0 80 c0 44 -3 80 -7
81 -5 0 -50 8 -102 17 l-94 17 -28 80 c-15 44 -50 145 -79 225 -28 80 -60 170
-70 200 -10 30 -37 107 -60 170 -42 118 -115 325 -130 370 -4 14 -29 84 -55
155 -26 72 -51 146 -57 165 -6 19 -13 40 -16 45 -4 6 -7 15 -8 20 -1 6 -11 35
-22 65 -12 30 -48 134 -82 230 -112 319 -182 515 -187 520 -2 3 -83 5 -179 5
l-175 1 -19 -44z m155 -245 c7 -30 13 -53 48 -172 14 -46 161 -500 298 -920
32 -99 59 -183 59 -187 0 -5 -187 -8 -414 -8 l-415 0 10 33 c6 17 13 39 16 47
3 8 7 20 9 27 1 7 19 63 39 125 41 129 61 193 138 438 31 96 72 227 92 291 20
64 38 125 40 135 2 11 4 19 5 19 2 0 5 14 14 54 3 13 13 49 22 80 9 31 17 61
17 68 1 23 15 3 22 -30z"/>
</g>
</svg>
