<?xml version="1.0" standalone="no"?>
<!DOCTYPE svg PUBLIC "-//W3C//DTD SVG 20010904//EN"
 "http://www.w3.org/TR/2001/REC-SVG-20010904/DTD/svg10.dtd">
<svg version="1.0" xmlns="http://www.w3.org/2000/svg"
 width="700.000000pt" height="700.000000pt" viewBox="0 0 700.000000 700.000000"
 preserveAspectRatio="xMidYMid meet">
<metadata>
Created by potrace 1.11, written by Peter Selinger 2001-2013
</metadata>
<g transform="translate(0.000000,700.000000) scale(0.100000,-0.100000)"
fill="#000000" stroke="none">
<path d="M3278 6995 c-2 -1 -39 -5 -83 -9 -134 -11 -273 -30 -380 -53 -38 -8
-81 -17 -95 -19 -157 -30 -470 -135 -645 -215 -27 -13 -53 -22 -57 -21 -3 1
-12 -5 -18 -13 -7 -8 -17 -15 -22 -15 -18 0 -170 -80 -192 -100 -5 -5 41 -9
105 -10 151 0 287 -9 404 -25 17 -3 50 -7 75 -10 25 -3 56 -7 70 -10 13 -2 42
-7 65 -11 333 -49 733 -180 1105 -362 236 -115 301 -167 341 -272 27 -70 23
-174 -9 -236 -50 -97 -130 -150 -256 -168 -55 -8 -138 22 -251 89 -315 187
-718 333 -1084 391 -18 3 -41 7 -50 9 -9 2 -44 6 -76 10 -33 4 -71 9 -85 11
-14 3 -99 6 -190 8 -191 4 -308 -5 -437 -35 -27 -6 -58 -13 -71 -15 -117 -23
-350 -129 -453 -207 -85 -64 -100 -78 -158 -142 -149 -165 -222 -355 -223
-585 -1 -126 13 -201 56 -295 39 -83 70 -130 128 -194 195 -211 523 -372 1138
-556 90 -26 428 -124 445 -129 27 -6 146 -44 292 -92 563 -187 942 -407 1172
-683 106 -127 219 -350 245 -482 2 -13 9 -44 15 -69 35 -156 30 -479 -11 -635
-5 -22 -12 -51 -15 -65 -8 -45 -63 -199 -100 -278 -161 -345 -461 -635 -846
-817 -167 -80 -467 -169 -637 -189 -25 -3 -76 -10 -115 -15 -92 -11 -460 -11
-554 0 -41 6 -78 8 -84 6 -13 -4 361 -189 478 -236 170 -67 438 -148 581 -176
94 -18 206 -36 249 -41 28 -3 60 -7 73 -9 152 -24 652 -25 777 -1 11 2 47 7
80 11 90 10 270 43 360 66 44 12 87 23 95 25 215 51 585 205 821 341 112 65
331 210 375 248 6 6 29 24 50 40 154 120 385 345 510 495 199 239 335 450 469
725 57 117 130 285 141 325 2 8 18 55 35 105 64 185 132 494 156 710 10 90 10
703 0 775 -4 30 -9 69 -12 85 -2 17 -6 46 -9 65 -4 30 -27 152 -40 215 -4 17
-13 57 -30 125 -25 100 -73 247 -141 430 -78 209 -270 552 -435 774 -171 232
-433 502 -650 669 -487 376 -999 599 -1605 702 -165 28 -292 38 -532 40 -138
2 -253 2 -255 0z"/>
<path d="M109 4339 c0 -8 -2 -21 -4 -29 -17 -71 -48 -210 -51 -230 -2 -14 -7
-41 -10 -60 -3 -19 -8 -51 -10 -70 -3 -19 -7 -48 -9 -65 -14 -100 -20 -225
-19 -410 0 -215 6 -313 29 -460 3 -16 7 -48 10 -70 5 -33 21 -115 50 -255 2
-8 9 -35 16 -60 7 -25 14 -52 15 -61 8 -39 99 -303 139 -400 100 -245 267
-541 413 -732 45 -59 78 -80 264 -161 206 -91 538 -184 753 -211 28 -4 61 -9
75 -11 125 -19 477 -26 599 -11 55 7 101 15 241 43 50 10 203 65 278 99 173
81 359 232 453 371 122 177 179 375 172 593 -10 354 -199 599 -623 811 -161
81 -454 189 -730 270 -52 16 -158 47 -235 70 -77 23 -153 45 -170 50 -233 62
-608 195 -793 281 -46 22 -85 39 -87 39 -2 0 -55 29 -118 64 -173 97 -292 183
-404 293 -89 88 -132 142 -193 243 -28 46 -50 77 -51 69z"/>
</g>
</svg>
