<svg xmlns="http://www.w3.org/2000/svg" viewBox="0 0 185.66 61.19"><defs><style>.cls-1{fill:#2d2d2d;}.cls-2{fill:#383838;}.cls-3{fill:#1e1e1e;}.cls-4{fill:#f9af1f;}.cls-5{fill:#e5951e;}</style></defs><title>Recurso 12</title><g id="Capa_2" data-name="Capa 2"><g id="Capa_1-2" data-name="Capa 1"><polygon class="cls-1" points="27.22 52.78 52.16 38.28 52.14 46.7 27.2 61.19 27.22 52.78"/><polygon class="cls-2" points="0.02 37.08 24.97 22.58 52.16 38.28 27.22 52.78 0.02 37.08"/><polygon class="cls-3" points="27.22 52.78 27.2 61.19 0 45.49 0.02 37.08 27.22 52.78"/><polygon class="cls-4" points="27.22 41.5 52.16 27 52.14 35.41 27.2 49.91 27.22 41.5"/><polygon class="cls-4" points="0.02 25.8 24.97 11.3 52.16 27 27.22 41.5 0.02 25.8"/><polygon class="cls-5" points="27.22 41.5 27.2 49.91 0 34.21 0.02 25.8 27.22 41.5"/><polygon class="cls-1" points="27.22 30.2 52.16 15.7 52.14 24.11 27.2 38.61 27.22 30.2"/><polygon class="cls-2" points="0.02 14.5 24.97 0 52.16 15.7 27.22 30.2 0.02 14.5"/><polygon class="cls-3" points="27.22 30.2 27.2 38.61 0 22.91 0.02 14.5 27.22 30.2"/><path class="cls-3" d="M131.19,16.7h5.47a31.78,31.78,0,0,1,6.35.41,7.09,7.09,0,0,1,3.85,2.38,6.84,6.84,0,0,1,1.5,4.53,6.94,6.94,0,0,1-1.46,4.53,7.15,7.15,0,0,1-4,2.4,35.27,35.27,0,0,1-7,.45h-2V45.25h-2.75Zm2.75,2.69v9.32l4.65.05a12.17,12.17,0,0,0,4.12-.51,4.18,4.18,0,0,0,2.06-1.66,4.69,4.69,0,0,0,0-5.09,4.22,4.22,0,0,0-2-1.63,12,12,0,0,0-4-.48Z"/><path class="cls-3" d="M135.08,46.4h-5V15.55h6.61a31.8,31.8,0,0,1,6.63.45,8.16,8.16,0,0,1,4.45,2.76A8,8,0,0,1,149.5,24a8,8,0,0,1-1.72,5.25,8.28,8.28,0,0,1-4.63,2.79,35.44,35.44,0,0,1-7.25.48h-.82Zm-2.75-2.29h.46V30.25h3.11a35.77,35.77,0,0,0,6.72-.41,6,6,0,0,0,3.39-2,5.78,5.78,0,0,0,1.2-3.81,5.69,5.69,0,0,0-1.23-3.8,5.85,5.85,0,0,0-3.24-2,29.34,29.34,0,0,0-6.08-.38h-4.33Zm6.26-14.2-5.8-.07V18.24h6a12.72,12.72,0,0,1,4.43.57,5.28,5.28,0,0,1,2.51,2.07,5.67,5.67,0,0,1,.93,3.15,5.73,5.73,0,0,1-.93,3.19,5.39,5.39,0,0,1-2.6,2.1A13,13,0,0,1,138.59,29.91Zm-3.51-2.33,3.52,0a11.09,11.09,0,0,0,3.7-.43A3.15,3.15,0,0,0,143.81,26a3.44,3.44,0,0,0,.56-1.94,3.36,3.36,0,0,0-.56-1.9,2.94,2.94,0,0,0-1.43-1.19,10.36,10.36,0,0,0-3.59-.41h-3.71Z"/><path class="cls-3" d="M108.56,16.74h2.74V45.21h-2.74Z"/><path class="cls-3" d="M112.45,46.4h-5V15.56h5ZM109.7,44h.46V17.93h-.46Z"/><path class="cls-3" d="M170.5,16.7l13.36,28.55h-3L176,35.14H164.19l-4.81,10.11h-3.07L169.83,16.7Zm-.34,5.84-4.71,10h9.39Z"/><path class="cls-3" d="M185.66,46.4h-5.49l-4.86-10.12H164.92L160.1,46.4h-5.59l14.6-30.85h2.12Zm-4-2.29h.45l-11.9-25.43-12,25.43h.53L163.47,34h13.28Zm-5-10.48h-13l6.52-13.77Zm-9.39-2.29H173l-2.89-6.12Z"/><path class="cls-3" d="M71.22,39.59l2.92-1.41c2,3,4.43,4.54,7.12,4.54a8.18,8.18,0,0,0,3.24-.64,5.42,5.42,0,0,0,2.31-1.73,3.81,3.81,0,0,0,.79-2.3,4,4,0,0,0-1.16-2.7,26.75,26.75,0,0,0-5.88-4.41,28.25,28.25,0,0,1-5.35-3.76A6,6,0,0,1,73.39,23a5.44,5.44,0,0,1,1.08-3.27,7.1,7.1,0,0,1,3-2.32,10.41,10.41,0,0,1,4.23-.85,10.81,10.81,0,0,1,4.54,1A14.49,14.49,0,0,1,90.73,21l-2.8,1.7A12.51,12.51,0,0,0,84.63,20a6.74,6.74,0,0,0-3-.65,5.38,5.38,0,0,0-3.39,1,3,3,0,0,0-1.32,2.48,3.55,3.55,0,0,0,.47,1.74,6.76,6.76,0,0,0,1.7,1.83q.67.52,4.43,2.74a23.43,23.43,0,0,1,6.12,4.69A6.61,6.61,0,0,1,91.32,38a6.46,6.46,0,0,1-2.84,5.19,10.9,10.9,0,0,1-6.9,2.2,12,12,0,0,1-5.67-1.33A13.48,13.48,0,0,1,71.22,39.59Z"/><path class="cls-3" d="M81.58,46.38a13,13,0,0,1-6.12-1.45,14.38,14.38,0,0,1-5-4.79l-.65-1,4.72-2.26.48.7c1.87,2.76,3.93,4.11,6.3,4.11a7.23,7.23,0,0,0,2.86-.57,4.5,4.5,0,0,0,1.9-1.4,2.88,2.88,0,0,0,.6-1.72,3.1,3.1,0,0,0-.92-2,25.79,25.79,0,0,0-5.65-4.22,29.13,29.13,0,0,1-5.57-3.93A7,7,0,0,1,72.41,23a6.41,6.41,0,0,1,1.26-3.85,8.29,8.29,0,0,1,3.42-2.65,12.17,12.17,0,0,1,9.58.12,15.76,15.76,0,0,1,4.79,3.77l.81.89L87.76,24l-.54-.58a11.73,11.73,0,0,0-3-2.49,5.84,5.84,0,0,0-2.55-.56,4.45,4.45,0,0,0-2.79.81,2,2,0,0,0-.93,1.7,2.57,2.57,0,0,0,.34,1.26,5.78,5.78,0,0,0,1.46,1.54c.27.21,1.26.85,4.32,2.66a24.3,24.3,0,0,1,6.38,4.92A7.58,7.58,0,0,1,92.3,38a7.41,7.41,0,0,1-3.22,6A11.88,11.88,0,0,1,81.58,46.38ZM72.72,40a11.65,11.65,0,0,0,3.65,3.23,11.12,11.12,0,0,0,5.21,1.22,9.84,9.84,0,0,0,6.3-2A5.47,5.47,0,0,0,90.33,38a5.61,5.61,0,0,0-1.44-3.51A22.53,22.53,0,0,0,83,30c-3.41-2-4.22-2.57-4.53-2.81a7.35,7.35,0,0,1-2-2.14A4.39,4.39,0,0,1,76,22.87a4,4,0,0,1,1.7-3.27,6.42,6.42,0,0,1,4-1.21,7.73,7.73,0,0,1,3.4.75,11.87,11.87,0,0,1,3,2.35l1.08-.66a12.15,12.15,0,0,0-3.32-2.43,10.13,10.13,0,0,0-8-.11,6.28,6.28,0,0,0-2.62,2A4.47,4.47,0,0,0,74.38,23a5.09,5.09,0,0,0,1.55,3.53,26.82,26.82,0,0,0,5.14,3.58,27,27,0,0,1,6.11,4.61,5,5,0,0,1,1.41,3.35,4.82,4.82,0,0,1-1,2.88A6.35,6.35,0,0,1,84.89,43a9.22,9.22,0,0,1-3.63.72c-2.81,0-5.31-1.44-7.44-4.28Z"/></g></g></svg>